<?xml version="1.0" encoding="UTF-8"?>
<!DOCTYPE svg PUBLIC "-//W3C//DTD SVG 1.1//EN" "http://www.w3.org/Graphics/SVG/1.1/DTD/svg11.dtd">
<!-- Creator: CorelDRAW X6 -->
<svg xmlns="http://www.w3.org/2000/svg" xml:space="preserve" width="63.9926mm" height="40.1453mm" version="1.1" style="shape-rendering:geometricPrecision; text-rendering:geometricPrecision; image-rendering:optimizeQuality; fill-rule:evenodd; clip-rule:evenodd"
viewBox="0 0 14748 9252"
 xmlns:xlink="http://www.w3.org/1999/xlink">
 <defs>
  <style type="text/css">
   <![CDATA[
    .fil0 {fill:#898989}
   ]]>
  </style>
 </defs>
 <g id="Capa_x0020_1">
  <metadata id="CorelCorpID_0Corel-Layer"/>
  <g id="_166192904">
   <g>
    <g>
     <path class="fil0" d="M13815 3922l-258 -1515c105,-22 190,-114 199,-224l20 -244c42,-530 -355,-962 -885,-962l-1725 0 40 -504c21,-261 -174,-473 -435,-473l-8794 0c-261,0 -490,212 -511,473l-332 4153c-10,126 84,229 211,229 126,0 237,-103 247,-229l332 -4153c1,-8 8,-15 16,-15l8794 0c8,0 15,7 14,15l-332 4153c-10,126 84,229 211,229 126,0 237,-103 247,-229l21 -260 2702 0c0,0 0,0 1,0 0,0 0,0 1,0 332,0 597,218 670,519l-712 0c-126,0 -237,103 -247,229l-39 489c-32,396 265,718 660,718l260 0 -81 1008 -599 0c-151,-568 -659,-977 -1293,-977 -634,0 -1207,409 -1449,977l-110 0 138 -1725c10,-126 -84,-229 -211,-229 -126,0 -237,103 -247,229l-138 1725 -4751 0c-151,-568 -659,-977 -1293,-977 -634,0 -1207,409 -1449,977l-1316 0c-8,0 -15,-7 -14,-15l40 -504 992 0c126,0 237,-103 247,-229 10,-127 -84,-229 -211,-229l-2199 0c-126,0 -237,103 -247,229 -10,126 84,229 211,229l748 0 -40 504c-21,261 175,473 435,473l1237 0c0,5 -1,10 -2,15 -64,800 535,1450 1335,1450 800,0 1502,-651 1566,-1450 0,-5 0,-10 1,-15l5161 0c0,5 -1,10 -2,15 -64,800 535,1450 1335,1450 800,0 1502,-651 1566,-1450 0,-5 0,-10 1,-15l749 0c126,0 237,-103 247,-229l195 -2443c48,-603 -357,-1104 -929,-1192zm-2686 -2487l1725 0c278,0 486,226 464,504l-1 15 -2229 0 41 -519zm-198 2473l120 -1496 2035 0 255 1496 -2409 0zm-6971 4886c-547,0 -957,-445 -913,-992 44,-547 524,-992 1072,-992 547,0 957,445 913,992 -44,547 -524,992 -1072,992zm8061 0c-547,0 -957,-445 -913,-992 44,-547 524,-992 1072,-992 547,0 957,445 913,992 -44,547 -524,992 -1072,992zm2204 -2931l-260 0c-143,0 -250,-116 -239,-260l21 -260 519 0 -41 519 0 0z"/>
    </g>
   </g>
   <g>
    <g>
     <path class="fil0" d="M4078 7328c-261,0 -490,212 -511,473 -21,261 175,473 435,473 261,0 490,-212 511,-473 21,-261 -175,-473 -435,-473z"/>
    </g>
   </g>
   <g>
    <g>
     <path class="fil0" d="M12140 7328c-261,0 -490,212 -511,473 -21,261 175,473 435,473 261,0 490,-212 511,-473 21,-261 -174,-473 -435,-473z"/>
    </g>
   </g>
   <g>
    <g>
     <path class="fil0" d="M3746 5374l-2931 0c-126,0 -237,103 -247,229 -10,127 84,229 211,229l2931 0c126,0 237,-103 247,-229 10,-126 -84,-229 -211,-229z"/>
    </g>
   </g>
   <g>
   </g>
   <g>
   </g>
   <g>
   </g>
   <g>
   </g>
   <g>
   </g>
   <g>
   </g>
   <g>
   </g>
   <g>
   </g>
   <g>
   </g>
   <g>
   </g>
   <g>
   </g>
   <g>
   </g>
   <g>
   </g>
   <g>
   </g>
   <g>
   </g>
  </g>
 </g>
</svg>
