<?xml version="1.0" encoding="UTF-8"?>
<!DOCTYPE svg PUBLIC "-//W3C//DTD SVG 1.1//EN" "http://www.w3.org/Graphics/SVG/1.1/DTD/svg11.dtd">
<!-- Creator: CorelDRAW X6 -->
<svg xmlns="http://www.w3.org/2000/svg" xml:space="preserve" width="29.7052mm" height="45.645mm" version="1.1" style="shape-rendering:geometricPrecision; text-rendering:geometricPrecision; image-rendering:optimizeQuality; fill-rule:evenodd; clip-rule:evenodd"
viewBox="0 0 3298 5068"
 xmlns:xlink="http://www.w3.org/1999/xlink">
 <defs>
  <style type="text/css">
   <![CDATA[
    .fil0 {fill:none}
    .fil1 {fill:#898989;fill-rule:nonzero}
   ]]>
  </style>
 </defs>
 <g id="Capa_x0020_1">
  <metadata id="CorelCorpID_0Corel-Layer"/>
  <path class="fil0" d="M2390 3706c493,117 799,342 799,586 0,369 -690,668 -1540,668 -851,0 -1540,-299 -1540,-668 0,-250 322,-479 834,-594"/>
  <path class="fil1" d="M2415 3600c260,62 474,154 623,264 167,122 259,269 259,428 0,232 -198,433 -517,572 -292,127 -693,205 -1132,205 -440,0 -840,-78 -1132,-205 -319,-138 -517,-340 -517,-572 0,-162 97,-312 271,-436 156,-111 378,-203 648,-263l47 211c-241,54 -436,134 -569,229 -115,82 -179,171 -179,259 0,137 147,270 385,373 265,115 635,186 1046,186 411,0 781,-71 1046,-186 238,-103 385,-236 385,-373 0,-85 -61,-172 -170,-253 -126,-93 -313,-172 -545,-227l50 -211zm-766 -3382c-355,0 -677,145 -910,378 -233,233 -378,555 -378,910 0,107 13,213 39,316 26,103 64,202 115,295l0 0 1134 2051 1135 -2052 0 0c50,-93 89,-192 114,-295 26,-103 39,-209 39,-316 0,-355 -145,-677 -378,-910 -233,-233 -555,-378 -910,-378zm-1064 224c273,-273 649,-441 1064,-441 415,0 792,169 1064,441 273,273 441,649 441,1064 0,124 -16,248 -46,369 -30,120 -75,237 -134,346l0 1 -1153 2086c-17,31 -42,57 -72,74l0 0c-30,18 -64,27 -99,27 -35,0 -70,-10 -100,-27 -30,-17 -55,-43 -72,-74l-1153 -2085 0 -1c-59,-110 -104,-226 -135,-346 -30,-121 -46,-245 -46,-369 0,-415 169,-792 441,-1064zm1064 1871c-223,0 -424,-91 -571,-237 -146,-146 -237,-348 -237,-570 0,-223 91,-424 237,-571 146,-146 348,-237 571,-237 223,0 424,91 571,237 146,146 237,348 237,571 0,223 -91,424 -237,570 -146,146 -348,237 -571,237zm-417 -390c107,107 254,173 417,173 163,0 310,-66 417,-173 107,-107 173,-254 173,-417 0,-163 -66,-310 -173,-417 -107,-107 -254,-173 -417,-173 -163,0 -310,66 -417,173 -107,107 -173,254 -173,417 0,163 66,310 173,417z"/>
 </g>
</svg>
