<?xml version="1.0" encoding="UTF-8"?>
<!DOCTYPE svg PUBLIC "-//W3C//DTD SVG 1.1//EN" "http://www.w3.org/Graphics/SVG/1.1/DTD/svg11.dtd">
<!-- Creator: CorelDRAW X6 -->
<svg xmlns="http://www.w3.org/2000/svg" xml:space="preserve" width="50.0667mm" height="35.4296mm" version="1.1" style="shape-rendering:geometricPrecision; text-rendering:geometricPrecision; image-rendering:optimizeQuality; fill-rule:evenodd; clip-rule:evenodd"
viewBox="0 0 20440 14464"
 xmlns:xlink="http://www.w3.org/1999/xlink">
 <defs>
  <style type="text/css">
   <![CDATA[
    .fil0 {fill:#898989;fill-rule:nonzero}
   ]]>
  </style>
 </defs>
 <g id="Capa_x0020_1">
  <metadata id="CorelCorpID_0Corel-Layer"/>
  <path class="fil0" d="M1762 0l16917 0c484,0 924,198 1243,517l2 2c319,319 517,759 517,1243l0 10941c0,484 -198,924 -517,1243l-2 2c-319,319 -759,517 -1243,517l-16917 0c-484,0 -924,-198 -1243,-517l-2 -2c-319,-319 -517,-759 -517,-1243l0 -10941c0,-484 198,-924 517,-1243l2 -2c319,-319 759,-517 1243,-517zm110 4524l16697 0 400 0 0 400 0 2900 0 400 -400 0 -16697 0 -400 0 0 -400 0 -2900 0 -400 400 0zm16297 799l-15897 0 0 2101 15897 0 0 -2101zm-17369 -2423l18841 0 0 -1138c0,-265 -108,-506 -282,-680 -175,-174 -415,-282 -680,-282l-16917 0c-265,0 -506,108 -680,282 -174,175 -282,415 -282,680l0 1138zm18841 799l-18841 0 0 9003c0,265 108,506 282,680 175,174 415,282 680,282l16917 0c265,0 506,-108 680,-282 174,-175 282,-415 282,-680l0 -9003z"/>
 </g>
</svg>
